HIERARCHY
ROOT Hips
{
	OFFSET -0.001795 -0.223333 0.028219
	CHANNELS 6 Xposition Yposition Zposition Zrotation Yrotation Xrotation 
	JOINT LeftUpLeg
	{
		OFFSET 0.069520 -0.091406 -0.006815
		CHANNELS 3 Zrotation Yrotation Xrotation
		JOINT LeftLeg
		{
			OFFSET 0.034277 -0.375199 -0.004496
			CHANNELS 3 Zrotation Yrotation Xrotation
			JOINT LeftFoot
			{
				OFFSET -0.013596 -0.397961 -0.043693
				CHANNELS 3 Zrotation Yrotation Xrotation
				JOINT LeftToe
				{
					OFFSET 0.026358 -0.055791 0.119288
					CHANNELS 3 Zrotation Yrotation Xrotation
					End Site
					{
						OFFSET 0.000000 0.000000 0.000000
					}
				}
			}
		}
	}
	JOINT RightUpLeg
	{
		OFFSET -0.067670 -0.090522 -0.004320
		CHANNELS 3 Zrotation Yrotation Xrotation
		JOINT RightLeg
		{
			OFFSET -0.038290 -0.382569 -0.008850
			CHANNELS 3 Zrotation Yrotation Xrotation
			JOINT RightFoot
			{
				OFFSET 0.015774 -0.398415 -0.042312
				CHANNELS 3 Zrotation Yrotation Xrotation
				JOINT RightToe
				{
					OFFSET -0.025372 -0.048144 0.123348
					CHANNELS 3 Zrotation Yrotation Xrotation
					End Site
					{
						OFFSET 0.000000 0.000000 0.000000
					}
				}
			}
		}
	}
	JOINT Spine
	{
		OFFSET -0.002533 0.108963 -0.026696
		CHANNELS 3 Zrotation Yrotation Xrotation
		JOINT Spine1
		{
			OFFSET 0.005487 0.135180 0.001092
			CHANNELS 3 Zrotation Yrotation Xrotation
			JOINT Spine2
			{
				OFFSET 0.001457 0.052922 0.025425
				CHANNELS 3 Zrotation Yrotation Xrotation
				JOINT Neck
				{
					OFFSET -0.002778 0.213870 -0.042857
					CHANNELS 3 Zrotation Yrotation Xrotation
					JOINT Head
					{
						OFFSET 0.005152 0.064970 0.051349
						CHANNELS 3 Zrotation Yrotation Xrotation
						End Site
						{
							OFFSET 0.000000 0.000000 0.000000
						}
					}
				}
				JOINT LeftShoulder
				{
					OFFSET 0.078845 0.121749 -0.034090
					CHANNELS 3 Zrotation Yrotation Xrotation
					JOINT LeftArm
					{
						OFFSET 0.090977 0.030469 -0.008868
						CHANNELS 3 Zrotation Yrotation Xrotation
						JOINT LeftForeArm
						{
							OFFSET 0.259612 -0.012772 -0.027456
							CHANNELS 3 Zrotation Yrotation Xrotation
							JOINT LeftHand
							{
								OFFSET 0.249234 0.008986 -0.001171
								CHANNELS 3 Zrotation Yrotation Xrotation
								End Site
								{
									OFFSET 0.000000 0.000000 0.000000
								}
							}
						}
					}
				}
				JOINT RightShoulder
				{
					OFFSET -0.081759 0.118833 -0.038615
					CHANNELS 3 Zrotation Yrotation Xrotation
					JOINT RightArm
					{
						OFFSET -0.096012 0.032551 -0.009143
						CHANNELS 3 Zrotation Yrotation Xrotation
						JOINT RightForeArm
						{
							OFFSET -0.253742 -0.013329 -0.021401
							CHANNELS 3 Zrotation Yrotation Xrotation
							JOINT RightHand
							{
								OFFSET -0.255298 0.007772 -0.005559
								CHANNELS 3 Zrotation Yrotation Xrotation
								End Site
								{
									OFFSET 0.000000 0.000000 0.000000
								}
							}
						}
					}
				}
			}
		}
	}
}
MOTION
Frames: 12
Frame Time: 0.050000
0.000000 0.951033 0.000000 -0.445265 -4.420358 1.905150 3.436519 -0.234923 -3.328517 -5.253449 0.637052 0.455301 5.053857 11.942668 8.568434 0.000000 0.000000 0.000000 -7.947259 0.716207 -12.272531 4.000125 -0.176053 15.942296 -2.360559 -7.899054 5.018141 0.000000 0.000000 0.000000 4.517169 -1.286971 16.456230 -4.080426 1.510056 -24.084565 -2.086833 4.124626 26.314820 11.467896 -5.209233 -24.201198 0.000000 0.000000 0.000000 -18.571146 -7.115471 2.471727 -43.314718 -8.633496 -4.120446 -8.627869 -26.230646 3.114833 0.000000 0.000000 0.000000 29.640418 -1.814567 -2.684553 48.333395 10.449866 -3.017478 2.516058 22.562685 1.495510 0.000000 0.000000 0.000000 
-0.006414 0.950184 0.000371 -0.209008 -4.639000 2.071750 3.777844 -0.235611 -3.465142 -5.257637 0.637420 0.287084 5.158667 12.213429 9.437242 0.000000 0.000000 0.000000 -8.160086 0.741575 -13.080514 4.014369 -0.149223 16.995455 -1.911400 -6.839542 4.773012 0.000000 0.000000 0.000000 4.276543 -1.309924 17.474890 -3.700537 1.413075 -25.186704 -2.347328 3.782047 25.442534 11.321054 -5.201386 -23.828580 0.000000 0.000000 0.000000 -18.940239 -5.620832 1.735165 -43.916075 -6.799458 -4.719651 -7.830482 -25.724484 2.895562 0.000000 0.000000 0.000000 29.255534 -2.626273 -3.432267 50.039301 8.270125 -3.748614 2.234542 23.588937 1.516924 0.000000 0.000000 0.000000 
-0.015383 0.949332 0.000908 0.151457 -3.688749 2.010022 4.481513 -0.246958 -3.877642 -5.516485 0.679553 1.605623 5.242046 12.325261 8.691377 0.000000 0.000000 0.000000 -8.218838 0.683528 -12.383778 3.513400 -0.095494 15.639944 -1.327517 -5.169439 3.986971 0.000000 0.000000 0.000000 4.907017 -1.403235 16.986603 -3.966600 1.492949 -24.820750 -2.768541 2.893691 25.397337 10.274121 -4.540466 -24.247190 0.000000 0.000000 0.000000 -19.005106 -5.650624 1.829553 -43.969337 -5.731685 -5.103592 -7.633910 -23.936536 2.639372 0.000000 0.000000 0.000000 29.353514 -3.207001 -3.947465 49.716193 6.987562 -4.219159 2.276358 23.804653 1.535848 0.000000 0.000000 0.000000 
-0.027018 0.947946 0.001382 0.450351 -3.648894 2.185052 4.872469 -0.257904 -4.259372 -5.138724 0.628753 1.664639 5.121683 12.164926 9.043961 0.000000 0.000000 0.000000 -8.480071 0.660354 -12.153033 3.466547 -0.121880 13.950208 -0.849267 -4.251666 4.386620 0.000000 0.000000 0.000000 4.956602 -1.486331 17.986126 -4.118642 1.520570 -26.122931 -3.014681 2.917713 25.635753 10.109491 -4.422420 -24.349732 0.000000 0.000000 0.000000 -19.046649 -4.902751 1.414032 -43.922058 -4.164629 -5.639386 -8.100878 -22.982035 2.617000 0.000000 0.000000 0.000000 30.496709 -4.081344 -4.675725 48.852574 6.261566 -4.479000 2.815695 24.283586 1.686591 0.000000 0.000000 0.000000 
-0.041239 0.946249 0.001253 0.592674 -3.349024 1.983199 5.915837 -0.236630 -4.512944 -5.055101 0.628674 2.727169 5.010030 11.927430 8.562003 0.000000 0.000000 0.000000 -8.099778 0.632501 -10.990361 3.106592 -0.098834 11.799296 -1.205881 -5.233613 4.864081 0.000000 0.000000 0.000000 5.210042 -1.529899 17.935953 -3.800655 1.460470 -25.401985 -3.277910 3.058487 25.322233 10.054262 -4.385998 -23.955403 0.000000 0.000000 0.000000 -19.003894 -4.710358 1.211232 -43.978928 -3.367045 -5.864317 -8.434678 -22.237973 2.578312 0.000000 0.000000 0.000000 29.995357 -4.343199 -4.648442 49.198004 6.244863 -4.522591 2.882060 23.876905 1.681402 0.000000 0.000000 0.000000 
-0.057276 0.944328 0.000159 0.641879 -3.069285 2.124015 6.903650 -0.223771 -4.938379 -4.907287 0.606084 2.945083 4.747552 11.552266 8.960041 0.000000 0.000000 0.000000 -7.379504 0.661619 -10.807221 3.199067 -0.138450 11.079515 -1.318196 -5.254707 4.327076 0.000000 0.000000 0.000000 5.557407 -1.650424 18.556985 -3.773760 1.455812 -25.760805 -3.109967 3.376996 25.576948 9.932661 -4.242336 -23.983273 0.000000 0.000000 0.000000 -19.671747 -4.505271 0.949130 -44.133015 -2.690729 -6.097554 -8.548897 -21.969521 2.555987 0.000000 0.000000 0.000000 30.304169 -4.356007 -4.499587 48.544179 6.801842 -4.344980 3.026462 23.698527 1.708686 0.000000 0.000000 0.000000 
-0.073488 0.942635 -0.002297 0.765614 -2.666632 2.215831 7.969821 -0.218758 -6.128139 -4.980560 0.631259 4.463041 4.682403 11.529992 9.370906 0.000000 0.000000 0.000000 -6.774463 0.700211 -11.075669 3.839252 -0.268409 11.480358 -1.856667 -6.125974 3.468689 0.000000 0.000000 0.000000 6.049892 -1.805326 19.172763 -3.733351 1.452772 -25.464971 -3.317469 3.717505 25.474269 10.121957 -4.214932 -24.246217 0.000000 0.000000 0.000000 -19.962342 -4.253802 0.628714 -44.576951 -2.119139 -6.303719 -8.256948 -22.326504 2.532075 0.000000 0.000000 0.000000 30.258521 -4.156771 -4.113162 48.526009 7.442905 -4.161390 2.974105 24.227069 1.768980 0.000000 0.000000 0.000000 
-0.088857 0.941043 -0.005419 1.088682 -1.884702 2.298815 8.664919 -0.223412 -7.329435 -5.258541 0.687414 6.093596 4.936973 12.031957 9.472940 0.000000 0.000000 0.000000 -6.408013 0.736447 -11.710215 4.648150 -0.447760 12.707714 -2.417245 -7.016432 2.419782 0.000000 0.000000 0.000000 6.638631 -2.047693 20.291087 -3.991531 1.520152 -25.305809 -3.120424 3.747842 25.575394 10.046216 -4.053460 -24.522653 0.000000 0.000000 0.000000 -20.819634 -5.083549 0.905147 -45.191613 -2.029461 -6.388766 -8.102087 -23.515231 2.635462 0.000000 0.000000 0.000000 30.210023 -4.011999 -3.805045 47.850308 8.921479 -3.635036 2.496971 24.782474 1.739286 0.000000 0.000000 0.000000 
-0.102964 0.939613 -0.008953 1.665150 -0.912704 2.687488 8.878216 -0.267932 -9.207092 -5.364883 0.719114 8.186669 4.837213 11.961537 9.620846 0.000000 0.000000 0.000000 -6.347839 0.772007 -12.763085 4.841657 -0.521769 14.286866 -2.830386 -7.656827 1.466901 0.000000 0.000000 0.000000 7.101277 -2.267405 21.113394 -3.822643 1.498215 -24.754892 -3.496294 3.904063 25.420508 9.824270 -3.830869 -24.331904 0.000000 0.000000 0.000000 -21.545428 -5.363386 0.794014 -45.946891 -3.079508 -6.044796 -7.770147 -23.914832 2.599124 0.000000 0.000000 0.000000 29.912758 -3.535188 -3.150540 47.559453 10.346661 -3.157118 2.090404 25.300293 1.727077 0.000000 0.000000 0.000000 
-0.116005 0.938723 -0.012799 2.276331 0.456953 2.797132 9.579633 -0.278513 -11.058661 -5.918768 0.819148 9.939123 4.800574 12.149572 10.456032 0.000000 0.000000 0.000000 -6.302200 0.787301 -13.800990 5.453847 -0.740301 16.347933 -3.587620 -9.237683 0.667579 0.000000 0.000000 0.000000 7.773075 -2.616718 22.441997 -4.255065 1.621744 -24.691584 -3.347515 4.098147 25.597622 9.742583 -3.638676 -24.332933 0.000000 0.000000 0.000000 -22.436576 -6.102860 0.858036 -46.768413 -3.789409 -5.814331 -7.683224 -25.225279 2.708463 0.000000 0.000000 0.000000 29.571443 -3.684715 -2.829901 47.001918 12.056980 -2.626191 2.227686 25.803926 1.839217 0.000000 0.000000 0.000000 
-0.128321 0.938495 -0.017174 3.030974 1.857456 3.269592 9.921466 -0.327643 -13.476818 -6.926336 1.017900 11.814867 4.983788 12.729972 11.398559 0.000000 0.000000 0.000000 -6.322290 0.785163 -14.633797 5.746922 -0.905561 17.540568 -4.106908 -10.277131 -0.322883 0.000000 0.000000 0.000000 8.084459 -2.866448 23.261198 -4.091293 1.610021 -24.192090 -3.534380 4.212243 25.283339 9.590701 -3.286338 -24.901982 0.000000 0.000000 0.000000 -23.280493 -6.142308 0.489122 -47.005982 -4.840881 -5.313531 -7.730308 -25.673676 2.733198 0.000000 0.000000 0.000000 28.516831 -3.239423 -2.105090 46.928665 13.618398 -2.079734 1.739523 26.062768 1.791161 0.000000 0.000000 0.000000 
-0.139429 0.938087 -0.021751 3.645747 2.992350 2.959868 10.516068 -0.323031 -15.668444 -8.661122 1.441403 14.787429 5.206562 13.240164 11.720620 0.000000 0.000000 0.000000 -6.449549 0.759250 -15.440586 6.655891 -1.266319 19.130211 -5.023615 -12.542995 -0.390772 0.000000 0.000000 0.000000 8.477720 -3.252227 25.116111 -4.323220 1.680106 -24.448747 -3.480334 4.705179 25.293625 10.167727 -3.470679 -24.887664 0.000000 0.000000 0.000000 -23.967951 -6.729702 0.389728 -46.841620 -5.552979 -4.913286 -7.754212 -26.836914 2.816316 0.000000 0.000000 0.000000 27.660653 -3.631500 -1.914646 46.075597 15.322223 -1.552348 2.221256 26.520324 1.973184 0.000000 0.000000 0.000000 
